# xmcd
#
# Track frame offsets: 
#        150
#        17036
#        41091
#        68436
#        122665
#        145402
#        182825
#        201574
#
# Disc length: 3024 seconds
#
# Revision: 0
# Processed by: cddbd v1.5.2PL0 Copyright (c) Steve Scherf et al.
# Submitted via: ExactAudioCopy v0.95b3
#
DISCID=740bce08
DTITLE=Folk Iván - Elsõ párezer év
DYEAR=1999
DGENRE=Christian Rock
TTITLE0=Télnek vége
TTITLE1=Szíved egy város
TTITLE2=Nézz szét
TTITLE3=Út, puszta földön
TTITLE4=Hazafelé
TTITLE5=Elsõ párezer év
TTITLE6=Mennyi hordalék blues
TTITLE7=Kiszállunk, Titanic
EXTD=
EXTT0=
EXTT1=
EXTT2=
EXTT3=
EXTT4=
EXTT5=
EXTT6=
EXTT7=
PLAYORDER=
